<mxfile host="app.diagrams.net" modified="2023-02-28T17:11:57.903Z" agent="5.0 (Windows NT 10.0; Win64; x64) AppleWebKit/537.36 (KHTML, like Gecko) Chrome/110.0.0.0 Safari/537.36" etag="KrFJwi3pbAzqKHBAD5mJ" version="20.8.23" type="github">
  <diagram name="Page-1" id="mP3mRnVrrTx2KNtC1_pH">
    <mxGraphModel dx="934" dy="506" grid="1" gridSize="10" guides="1" tooltips="1" connect="1" arrows="1" fold="1" page="1" pageScale="1" pageWidth="850" pageHeight="1100" math="0" shadow="0">
      <root>
        <mxCell id="0" />
        <mxCell id="1" parent="0" />
        <mxCell id="qJdSRWKAsvq0_DIi3T-k-1" value="" style="whiteSpace=wrap;html=1;aspect=fixed;" vertex="1" parent="1">
          <mxGeometry x="170" y="10" width="560" height="560" as="geometry" />
        </mxCell>
        <mxCell id="qJdSRWKAsvq0_DIi3T-k-2" value="Customer" style="shape=umlActor;verticalLabelPosition=bottom;verticalAlign=top;html=1;outlineConnect=0;" vertex="1" parent="1">
          <mxGeometry x="70" y="210" width="30" height="60" as="geometry" />
        </mxCell>
        <mxCell id="qJdSRWKAsvq0_DIi3T-k-3" value="Open Account" style="ellipse;whiteSpace=wrap;html=1;fillColor=#f8cecc;strokeColor=#b85450;" vertex="1" parent="1">
          <mxGeometry x="245" y="60" width="100" height="70" as="geometry" />
        </mxCell>
        <mxCell id="qJdSRWKAsvq0_DIi3T-k-5" value="Add Basic details" style="ellipse;whiteSpace=wrap;html=1;" vertex="1" parent="1">
          <mxGeometry x="465" y="110" width="90" height="60" as="geometry" />
        </mxCell>
        <mxCell id="qJdSRWKAsvq0_DIi3T-k-7" value="" style="html=1;labelBackgroundColor=#ffffff;startArrow=none;startFill=0;startSize=6;endArrow=classic;endFill=1;endSize=6;jettySize=auto;orthogonalLoop=1;strokeWidth=1;dashed=1;fontSize=14;rounded=0;entryX=0;entryY=0.5;entryDx=0;entryDy=0;exitX=1;exitY=0.5;exitDx=0;exitDy=0;" edge="1" parent="1" source="qJdSRWKAsvq0_DIi3T-k-8" target="qJdSRWKAsvq0_DIi3T-k-5">
          <mxGeometry width="60" height="60" relative="1" as="geometry">
            <mxPoint x="335" y="260" as="sourcePoint" />
            <mxPoint x="395" y="200" as="targetPoint" />
          </mxGeometry>
        </mxCell>
        <mxCell id="qJdSRWKAsvq0_DIi3T-k-14" value="Select Account Type" style="ellipse;whiteSpace=wrap;html=1;" vertex="1" parent="1">
          <mxGeometry x="495" y="190" width="90" height="60" as="geometry" />
        </mxCell>
        <mxCell id="qJdSRWKAsvq0_DIi3T-k-15" value="&lt;font style=&quot;font-size: 11px;&quot;&gt;Verify Email and Phone Number&lt;/font&gt;" style="ellipse;whiteSpace=wrap;html=1;" vertex="1" parent="1">
          <mxGeometry x="445" y="330" width="90" height="60" as="geometry" />
        </mxCell>
        <mxCell id="qJdSRWKAsvq0_DIi3T-k-17" value="Privacy and Policy Check" style="ellipse;whiteSpace=wrap;html=1;" vertex="1" parent="1">
          <mxGeometry x="235" y="345" width="90" height="60" as="geometry" />
        </mxCell>
        <mxCell id="qJdSRWKAsvq0_DIi3T-k-20" value="" style="html=1;labelBackgroundColor=#ffffff;startArrow=none;startFill=0;startSize=6;endArrow=classic;endFill=1;endSize=6;jettySize=auto;orthogonalLoop=1;strokeWidth=1;dashed=1;fontSize=14;rounded=0;entryX=0.168;entryY=0.14;entryDx=0;entryDy=0;exitX=1;exitY=0.5;exitDx=0;exitDy=0;entryPerimeter=0;" edge="1" parent="1" source="qJdSRWKAsvq0_DIi3T-k-36" target="qJdSRWKAsvq0_DIi3T-k-15">
          <mxGeometry width="60" height="60" relative="1" as="geometry">
            <mxPoint x="365" y="115" as="sourcePoint" />
            <mxPoint x="475" y="150" as="targetPoint" />
          </mxGeometry>
        </mxCell>
        <mxCell id="qJdSRWKAsvq0_DIi3T-k-21" value="&lt;font style=&quot;font-size: 11px;&quot;&gt;Warning Message&lt;/font&gt;" style="ellipse;whiteSpace=wrap;html=1;" vertex="1" parent="1">
          <mxGeometry x="595" y="270" width="90" height="60" as="geometry" />
        </mxCell>
        <mxCell id="qJdSRWKAsvq0_DIi3T-k-22" value="" style="html=1;labelBackgroundColor=#ffffff;startArrow=none;startFill=0;startSize=6;endArrow=none;endFill=1;endSize=6;jettySize=auto;orthogonalLoop=1;strokeWidth=1;dashed=1;fontSize=14;rounded=0;entryX=0;entryY=0.5;entryDx=0;entryDy=0;exitX=1;exitY=0.5;exitDx=0;exitDy=0;" edge="1" parent="1" source="qJdSRWKAsvq0_DIi3T-k-3" target="qJdSRWKAsvq0_DIi3T-k-8">
          <mxGeometry width="60" height="60" relative="1" as="geometry">
            <mxPoint x="345" y="95" as="sourcePoint" />
            <mxPoint x="455" y="130" as="targetPoint" />
          </mxGeometry>
        </mxCell>
        <mxCell id="qJdSRWKAsvq0_DIi3T-k-8" value="&amp;lt;&amp;lt;includes&amp;gt;&amp;gt;" style="text;html=1;strokeColor=none;fillColor=none;align=center;verticalAlign=middle;whiteSpace=wrap;rounded=0;rotation=20;" vertex="1" parent="1">
          <mxGeometry x="364.24" y="110" width="71.52" height="10.39" as="geometry" />
        </mxCell>
        <mxCell id="qJdSRWKAsvq0_DIi3T-k-28" value="" style="html=1;labelBackgroundColor=#ffffff;startArrow=none;startFill=0;startSize=6;endArrow=classic;endFill=1;endSize=6;jettySize=auto;orthogonalLoop=1;strokeWidth=1;dashed=1;fontSize=14;rounded=0;exitX=1;exitY=0.5;exitDx=0;exitDy=0;entryX=0.06;entryY=0.273;entryDx=0;entryDy=0;entryPerimeter=0;" edge="1" parent="1" source="qJdSRWKAsvq0_DIi3T-k-30" target="qJdSRWKAsvq0_DIi3T-k-14">
          <mxGeometry width="60" height="60" relative="1" as="geometry">
            <mxPoint x="405" y="160" as="sourcePoint" />
            <mxPoint x="445" y="176" as="targetPoint" />
          </mxGeometry>
        </mxCell>
        <mxCell id="qJdSRWKAsvq0_DIi3T-k-32" value="" style="html=1;labelBackgroundColor=#ffffff;startArrow=none;startFill=0;startSize=6;endArrow=none;endFill=1;endSize=6;jettySize=auto;orthogonalLoop=1;strokeWidth=1;dashed=1;fontSize=14;rounded=0;exitX=1;exitY=1;exitDx=0;exitDy=0;entryX=0;entryY=0.5;entryDx=0;entryDy=0;" edge="1" parent="1" source="qJdSRWKAsvq0_DIi3T-k-3" target="qJdSRWKAsvq0_DIi3T-k-30">
          <mxGeometry width="60" height="60" relative="1" as="geometry">
            <mxPoint x="330" y="120" as="sourcePoint" />
            <mxPoint x="503" y="203" as="targetPoint" />
          </mxGeometry>
        </mxCell>
        <mxCell id="qJdSRWKAsvq0_DIi3T-k-30" value="&amp;lt;&amp;lt;includes&amp;gt;&amp;gt;" style="text;html=1;strokeColor=none;fillColor=none;align=center;verticalAlign=middle;whiteSpace=wrap;rounded=0;rotation=25;" vertex="1" parent="1">
          <mxGeometry x="378.95" y="159.37" width="75.56" height="15.39" as="geometry" />
        </mxCell>
        <mxCell id="qJdSRWKAsvq0_DIi3T-k-33" value="" style="html=1;labelBackgroundColor=#ffffff;startArrow=none;startFill=0;startSize=6;endArrow=classic;endFill=1;endSize=6;jettySize=auto;orthogonalLoop=1;strokeWidth=1;dashed=1;fontSize=14;rounded=0;exitX=1;exitY=0.5;exitDx=0;exitDy=0;entryX=0.5;entryY=0;entryDx=0;entryDy=0;" edge="1" parent="1" source="qJdSRWKAsvq0_DIi3T-k-35" target="qJdSRWKAsvq0_DIi3T-k-17">
          <mxGeometry width="60" height="60" relative="1" as="geometry">
            <mxPoint x="250" y="210" as="sourcePoint" />
            <mxPoint x="345" y="256" as="targetPoint" />
          </mxGeometry>
        </mxCell>
        <mxCell id="qJdSRWKAsvq0_DIi3T-k-34" value="" style="html=1;labelBackgroundColor=#ffffff;startArrow=none;startFill=0;startSize=6;endArrow=none;endFill=1;endSize=6;jettySize=auto;orthogonalLoop=1;strokeWidth=1;dashed=1;fontSize=14;rounded=0;entryX=0;entryY=0.5;entryDx=0;entryDy=0;exitX=0.468;exitY=1.004;exitDx=0;exitDy=0;exitPerimeter=0;" edge="1" parent="1" target="qJdSRWKAsvq0_DIi3T-k-35" source="qJdSRWKAsvq0_DIi3T-k-3">
          <mxGeometry width="60" height="60" relative="1" as="geometry">
            <mxPoint x="175" y="170" as="sourcePoint" />
            <mxPoint x="348" y="253" as="targetPoint" />
          </mxGeometry>
        </mxCell>
        <mxCell id="qJdSRWKAsvq0_DIi3T-k-35" value="&amp;lt;&amp;lt;includes&amp;gt;&amp;gt;" style="text;html=1;strokeColor=none;fillColor=none;align=center;verticalAlign=middle;whiteSpace=wrap;rounded=0;rotation=92;" vertex="1" parent="1">
          <mxGeometry x="252.29000000000002" y="221.62" width="71.45" height="15.39" as="geometry" />
        </mxCell>
        <mxCell id="qJdSRWKAsvq0_DIi3T-k-37" value="" style="html=1;labelBackgroundColor=#ffffff;startArrow=none;startFill=0;startSize=6;endArrow=none;endFill=1;endSize=6;jettySize=auto;orthogonalLoop=1;strokeWidth=1;dashed=1;fontSize=14;rounded=0;entryX=0;entryY=0.5;entryDx=0;entryDy=0;exitX=0.58;exitY=0.981;exitDx=0;exitDy=0;exitPerimeter=0;" edge="1" parent="1" source="qJdSRWKAsvq0_DIi3T-k-3" target="qJdSRWKAsvq0_DIi3T-k-36">
          <mxGeometry width="60" height="60" relative="1" as="geometry">
            <mxPoint x="303" y="129" as="sourcePoint" />
            <mxPoint x="460" y="338" as="targetPoint" />
          </mxGeometry>
        </mxCell>
        <mxCell id="qJdSRWKAsvq0_DIi3T-k-36" value="&amp;lt;&amp;lt;includes&amp;gt;&amp;gt;" style="text;html=1;strokeColor=none;fillColor=none;align=center;verticalAlign=middle;whiteSpace=wrap;rounded=0;rotation=51;" vertex="1" parent="1">
          <mxGeometry x="315" y="180" width="75.56" height="15.39" as="geometry" />
        </mxCell>
        <mxCell id="qJdSRWKAsvq0_DIi3T-k-38" value="" style="html=1;labelBackgroundColor=#ffffff;startArrow=none;startFill=0;startSize=6;endArrow=classic;endFill=1;endSize=6;jettySize=auto;orthogonalLoop=1;strokeWidth=1;dashed=1;fontSize=14;rounded=0;exitX=0.002;exitY=0.572;exitDx=0;exitDy=0;entryX=1;entryY=0;entryDx=0;entryDy=0;exitPerimeter=0;" edge="1" parent="1" source="qJdSRWKAsvq0_DIi3T-k-39" target="qJdSRWKAsvq0_DIi3T-k-15">
          <mxGeometry width="60" height="60" relative="1" as="geometry">
            <mxPoint x="546" y="310" as="sourcePoint" />
            <mxPoint x="595" y="333" as="targetPoint" />
          </mxGeometry>
        </mxCell>
        <mxCell id="qJdSRWKAsvq0_DIi3T-k-40" value="" style="html=1;labelBackgroundColor=#ffffff;startArrow=none;startFill=0;startSize=6;endArrow=none;endFill=1;endSize=6;jettySize=auto;orthogonalLoop=1;strokeWidth=1;dashed=1;fontSize=14;rounded=0;exitX=0.027;exitY=0.648;exitDx=0;exitDy=0;entryX=1;entryY=0.5;entryDx=0;entryDy=0;exitPerimeter=0;" edge="1" parent="1" source="qJdSRWKAsvq0_DIi3T-k-21" target="qJdSRWKAsvq0_DIi3T-k-39">
          <mxGeometry width="60" height="60" relative="1" as="geometry">
            <mxPoint x="597" y="309" as="sourcePoint" />
            <mxPoint x="522" y="339" as="targetPoint" />
          </mxGeometry>
        </mxCell>
        <mxCell id="qJdSRWKAsvq0_DIi3T-k-39" value="&lt;p style=&quot;line-height: 70%;&quot;&gt;&lt;font style=&quot;font-size: 9px;&quot;&gt;&amp;lt;&amp;lt;extend&amp;gt;&amp;gt;&lt;/font&gt;&lt;/p&gt;" style="text;html=1;strokeColor=none;fillColor=none;align=center;verticalAlign=middle;whiteSpace=wrap;rounded=0;rotation=-20;" vertex="1" parent="1">
          <mxGeometry x="535.16" y="315.51" width="50.3" height="15.39" as="geometry" />
        </mxCell>
        <mxCell id="qJdSRWKAsvq0_DIi3T-k-42" value="&lt;font style=&quot;font-size: 13px;&quot;&gt;if Unverified&lt;/font&gt;" style="text;html=1;strokeColor=none;fillColor=none;align=center;verticalAlign=middle;whiteSpace=wrap;rounded=0;fontSize=9;" vertex="1" parent="1">
          <mxGeometry x="565" y="345" width="60" height="30" as="geometry" />
        </mxCell>
        <mxCell id="qJdSRWKAsvq0_DIi3T-k-43" value="Bank" style="shape=umlActor;verticalLabelPosition=bottom;verticalAlign=top;html=1;outlineConnect=0;" vertex="1" parent="1">
          <mxGeometry x="790" y="210" width="30" height="60" as="geometry" />
        </mxCell>
        <mxCell id="qJdSRWKAsvq0_DIi3T-k-47" value="" style="endArrow=none;html=1;rounded=0;fontSize=13;entryX=0;entryY=1;entryDx=0;entryDy=0;" edge="1" parent="1" target="qJdSRWKAsvq0_DIi3T-k-3">
          <mxGeometry width="50" height="50" relative="1" as="geometry">
            <mxPoint x="110" y="240" as="sourcePoint" />
            <mxPoint x="90" y="150" as="targetPoint" />
          </mxGeometry>
        </mxCell>
        <mxCell id="qJdSRWKAsvq0_DIi3T-k-49" value="" style="endArrow=none;html=1;rounded=0;fontSize=13;exitX=1.005;exitY=0.405;exitDx=0;exitDy=0;exitPerimeter=0;" edge="1" parent="1" source="qJdSRWKAsvq0_DIi3T-k-1">
          <mxGeometry width="50" height="50" relative="1" as="geometry">
            <mxPoint x="730" y="287.01" as="sourcePoint" />
            <mxPoint x="780" y="237.01" as="targetPoint" />
          </mxGeometry>
        </mxCell>
      </root>
    </mxGraphModel>
  </diagram>
</mxfile>
